<svg xmlns="http://www.w3.org/2000/svg" viewBox="1.9 0.7 12 9.5">
<path fill-rule="evenodd" fill="#66cc99" stroke="#555555" stroke-width="0.020000" opacity="0.6" d="M 1.96567050848572,5.0889993207456685 L 4.407934180110622,0.8589 L 9.292465819889378,0.8589 L 11.388596428150576,4.489398213508395 L 11.73473132143724,5.0889961513191055 L 9.638598094737127,8.7194988999637 L 9.292461375709614,9.3191 L 4.408033605991806,9.3191 L 1.96567050848572,5.0889993207456685 z M 9.531011626532635,5.157343152607464 L 9.529620300397955,5.146188178013494 L 9.523771369963711,5.102172498135451 L 9.522905752139222,5.090072564570037 L 9.523511626532636,5.0779568473925485 L 9.523864884641357,5.074976399014427 L 9.537751700642005,4.9700759903764435 L 9.543538716768287,4.925675608028229 L 9.54517720993174,4.913383627990886 L 9.54723595090558,4.902546510161809 L 9.550475782149864,4.892002078894679 L 9.552357481124492,4.887654419605618 L 9.55227530721316,4.8876204745543115 L 9.59267530721316,4.789820474554311 L 9.60987500950767,4.748420657413236 L 9.614398018162156,4.737408114602314 L 9.619381537967701,4.7270210913361925 L 9.625526652879257,4.717276180628188 L 9.62813058538009,4.713738045423258 L 9.692688524808311,4.6297927371884215 L 9.719946539745978,4.594247486940034 L 9.727498980280311,4.584449213966066 L 9.734177545537037,4.57664875746461 L 9.741620862654388,4.569574339763484 L 9.742320862654388,4.568974339763484 L 9.74645175942161,4.565620040549969 L 9.83035175942161,4.501120040549969 L 9.865948255139465,4.473822636042483 L 9.875449213966071,4.466498980280306 L 9.883602581468937,4.460836208470576 L 9.892277223335904,4.456009721685584 L 9.899099065725576,4.453057494679847 L 9.899073157626205,4.452994867447046 L 9.99690331384018,4.412523760943818 L 10.038608114602312,4.395198018162156 L 10.04980811460231,4.390598018162156 L 10.058564217915022,4.387469099942123 L 10.067573092263155,4.385167001458114 L 10.0755807829496,4.38389800069842 L 10.075576399014428,4.3838648846413575 L 10.225056591061106,4.364067508850706 L 10.23779652654108,4.362472212328633 L 10.246056020478623,4.361785899725183 L 10.254343979521353,4.361785899725181 L 10.262603473458896,4.362472212328631 L 10.36902400962284,4.376551700641909 L 10.413424391971777,4.382338716768288 L 10.425716372009102,4.383977209931737 L 10.436553489838182,4.386035950905578 L 10.447097921105318,4.389275782149862 L 10.451412521121243,4.391143172827491 L 10.451446204229695,4.391061549651314 L 10.549346204229694,4.431461549651314 L 10.59077934258665,4.448675009507622 L 10.601791885397684,4.453198018162154 L 10.612178908663843,4.458181537967721 L 10.621923819371881,4.464326652879306 L 10.625461954576743,4.466930585380089 L 10.744807218901368,4.5587115914383425 L 10.754353700192107,4.565994474072515 L 10.76195996430803,4.572420746633081 L 10.768889415636593,4.57957161630809 L 10.773424095051888,4.58529470642614 L 10.77347995945003,4.585251759421609 L 10.837979959450031,4.6691517594216085 L 10.8652773639573,4.7047482551391795 L 10.872601019719701,4.714249213966079 L 10.87826379152941,4.722402581468915 L 10.88309027831439,4.7310772233358485 L 10.886042505320157,4.737899065725576 L 10.886105132552956,4.737873157626205 L 10.926576239056477,4.83570331384089 L 10.943901981837847,4.877408114602315 L 10.948501981837847,4.888608114602316 L 10.951630900057877,4.897364217915019 L 10.953932998541884,4.906373092263144 L 10.95520199930158,4.9143807829496 L 10.955235115358642,4.914376399014427 L 10.975032491149294,5.063856591061107 L 10.976627787671367,5.0765965265410795 L 10.977322775939957,5.085070769992324 L 10.977295364398504,5.093573420130478 L 10.976545751220973,5.102043006357001 L 10.962745751220973,5.206943006357001 L 10.962419484469082,5.208791164002966 L 10.960942251625209,5.219870410332017 L 10.955161283231712,5.2642243919717755 L 10.953650803641079,5.272848098483424 L 10.951391831982331,5.281306639116283 L 10.948401683242189,5.2895351792726295 L 10.90758139171362,5.388184180349785 L 10.885779973113406,5.440787603314474 L 10.882089528264702,5.448697051596228 L 10.877723457628838,5.456254576489054 L 10.872715021388471,5.463402605709003 L 10.808560067568848,5.546953243241537 L 10.800353460254023,5.557752513059966 L 10.773053460254022,5.593352513059966 L 10.767448656017017,5.600036180937951 L 10.761282733310308,5.606205998116218 L 10.754602605709005,5.611815021388471 L 10.670602605709005,5.676315021388471 L 10.669295093684083,5.677283532572701 L 10.660252513059966,5.684253460254023 L 10.624652513059965,5.711553460254023 L 10.617500585414504,5.7165578515974635 L 10.60993949151906,5.72091948671156 L 10.602026842373796,5.724605132552954 L 10.504126842373797,5.765105132552954 L 10.502416214539107,5.765779489511905 L 10.492079342586566,5.770024990492414 L 10.450866486188001,5.787147240010657 L 10.442660884330754,5.790143175195642 L 10.434225132216508,5.792411570165505 L 10.425623600985572,5.793935115358643 L 10.320623600985574,5.807835115358643 L 10.307388178013444,5.809479699602052 L 10.263372498135455,5.81532863003629 L 10.254649805908658,5.816100947079471 L 10.245892991754372,5.816107205345622 L 10.237169204528916,5.815347356845208 L 10.132169204528916,5.801547356845207 L 10.130318847935616,5.801220819394226 L 10.119229589668281,5.799742251625248 L 10.074875608028224,5.793961283231712 L 10.066251901516575,5.79245080364108 L 10.057793360883716,5.79019183198233 L 10.049564820727369,5.787201683242189 L 9.950915819650211,5.746381391713617 L 9.89831239668553,5.724579973113407 L 9.890402948403773,5.720889528264704 L 9.882845423510945,5.7165234576288375 L 9.875697394290995,5.711515021388471 L 9.791697394290996,5.647015021388471 L 9.790555234838349,5.646088130078896 L 9.781239715820911,5.63907069920724 L 9.745739715820912,5.6117706992072405 L 9.739101303961572,5.606191358339389 L 9.73297121777893,5.60005787646306 L 9.727395554023213,5.593416375863265 L 9.662795554023212,5.509316375863265 L 9.661821555235905,5.508001694084435 L 9.654846539745979,5.498952513059966 L 9.627546539745978,5.463352513059966 L 9.622548613269394,5.456210739676751 L 9.618191624024066,5.4486608495557896 L 9.614508678242524,5.440760209930244 L 9.574008678242524,5.3429602099302445 L 9.573327895532078,5.341234195515761 L 9.56907500950748,5.330879342586306 L 9.551952759989344,5.289666486188001 L 9.548956824804359,5.2814608843307544 L 9.546688429834497,5.273025132216509 L 9.545164884641359,5.264423600985574 L 9.531264884641358,5.159423600985574 L 9.531011626532635,5.157343152607464 z M 5.64932861651933,1.441365548731592 L 5.68632861651933,1.446265548731592 L 5.697030109906819,1.447747064243675 L 5.7078711309989485,1.4498656948163733 L 5.718412344158839,1.4531670822430958 L 5.720012344158839,1.4537670822430957 L 5.723183817404838,1.4550184578775986 L 5.962821951676596,1.5543342703179548 L 5.973035088409097,1.5592680539326664 L 5.982623819371906,1.565326652879324 L 5.984023819371906,1.566326652879324 L 5.986802605709005,1.5683849786115294 L 6.154713953785924,1.6973169065991638 L 6.184857166543582,1.7203584947824757 L 6.192857166543582,1.7265584947824757 L 6.2002299570974655,1.7328681019854417 L 6.206956464948263,1.7398626195342308 L 6.211895536853623,1.746112355630254 L 6.211915021388471,1.7460973942909956 L 6.340915021388471,1.9140973942909956 L 6.363547129060969,1.9437081545447337 L 6.369541505217522,1.951442833456415 L 6.375271677962415,1.9596550886942328 L 6.3801517940956245,1.9683992571683515 L 6.384132917756913,1.9775876558411838 L 6.482765729682048,2.2155780483234095 L 6.48589744964778,2.2242312098195787 L 6.488220450666132,2.2331356210910376 L 6.4897150604322915,2.2422158752432875 L 6.489835777569324,2.2432419709080658 L 6.517340928186571,2.4525202908218953 L 6.522194606270488,2.489170513088206 L 6.523552935756326,2.4989698900931887 L 6.524385150189191,2.507908677459962 L 6.524412345243863,2.516886080251396 L 6.523634301743156,2.52582974553816 L 6.495972303279721,2.7346877842962503 L 6.495665561734324,2.7372915230254677 L 6.489573403153053,2.784331060246216 L 6.488057938706832,2.7930157386006793 L 6.485783474118277,2.801533196052505 L 6.482767686587718,2.809817234691887 L 6.401717906972508,3.0051961732217696 L 6.397217945163841,3.0161958559492166 L 6.382917945163841,3.0507958559492163 L 6.379224509653542,3.058729831852486 L 6.374851538096793,3.0663105019591637 L 6.369832522837645,3.0734798063417967 L 6.2408325228376444,3.2415798063417975 L 6.239480256945469,3.2433114349309022 L 6.2110509670675675,3.2805251499135935 L 6.205405947884743,3.287273565615245 L 6.199189616373215,3.2934996862850965 L 6.192450091511654,3.299155317169194 L 6.024818257489596,3.4276963249350674 L 6.022734265712062,3.429320348474835 L 6.014928897728416,3.435271941562365 L 5.9855228009432295,3.457922583680684 L 5.978298477932846,3.4629954552280795 L 5.970654930989573,3.467411455547454 L 5.962651722352602,3.4711361730143024 L 5.920310321011543,3.488611987247051 L 5.767068888959072,3.552087727203554 L 5.756507248198191,3.5564098597396634 L 5.750301502270043,3.559074211357164 L 5.721601502270042,3.570974211357164 L 5.7134012827789515,3.573962009076265 L 5.70497178020678,3.5762234292712005 L 5.696377202525522,3.57774124658338 L 5.486377202525522,3.6054412465833794 L 5.483468374911533,3.6057855709891347 L 5.474510088370827,3.6069501482394264 L 5.43762861651933,3.6118344512684084 L 5.428904736916218,3.6126029443645127 L 5.420147074453475,3.612605215275212 L 5.411422797474478,3.6118412465833796 L 5.202438556455098,3.5842752300298715 L 5.1988352155465565,3.583834174667433 L 5.189334685035106,3.5825041003958296 L 5.152834834424952,3.577768984640999 L 5.14416776242763,3.5762543022356263 L 5.135667376648653,3.5739836544416086 L 5.127399480614256,3.5709746188884277 L 4.931912193190197,3.4899213519656707 L 4.9208096435457565,3.4853788320049945 L 4.886309643545756,3.4710788320049946 L 4.87841817480134,3.4673974578064133 L 4.8708768926540085,3.4630435103436605 L 4.863742980983383,3.458050004640272 L 4.695542980983383,3.329050004640272 L 4.693788565069099,3.3276802569454698 L 4.686145590216865,3.321852005708403 L 4.656545590216866,3.299152005708403 L 4.6498485193176995,3.293534642181466 L 4.643667579097873,3.287353905201044 L 4.638049995359729,3.2806570190166173 L 4.5094063719560395,3.1129216898964582 L 4.507779651525166,3.110834265712062 L 4.5017636703853485,3.1029444543811544 L 4.479147994291596,3.0734544097831322 L 4.474157282113615,3.06632435145758 L 4.469805423344262,3.0587873583554988 L 4.466125381111572,3.0509005193857437 L 4.385025381111572,2.855300519385744 L 4.380424725772921,2.844057681163201 L 4.366221167995006,2.809790356454243 L 4.363240265903008,2.8016084890512776 L 4.360982464578112,2.7931983127951527 L 4.3594648846413575,2.7846236009855727 L 4.3316648846413575,2.5746236009855727 L 4.331314429010866,2.5716683749115328 L 4.325331015359001,2.5255651655750495 L 4.324504209917006,2.5136175868774986 L 4.325111626532641,2.501656847392494 L 4.3255526431547935,2.4978692045289157 L 4.353165548731592,2.2877713834806697 L 4.3580655487315925,2.2507713834806697 L 4.3595658253325675,2.2400352155465564 L 4.361447081821597,2.230208007905195 L 4.364300966641703,2.2206179882265125 L 4.364900966641702,2.2189179882265124 L 4.366825381111572,2.2138994806142565 L 4.462221167995007,1.983809643545755 L 4.466280561817147,1.9741273323749347 L 4.470386586048563,1.9655133604300055 L 4.475294970566209,1.9573299803774884 L 4.476294970566208,1.9558299803774888 L 4.480167477162356,1.9504201936582033 L 4.609108179729153,1.7823974641893763 L 4.631749032932433,1.7527748500864067 L 4.638733624643059,1.7438618319983434 L 4.646669550968871,1.734909098323372 L 4.65561784480679,1.7269681661177734 L 4.657894841373486,1.7251869389527854 L 4.797509945891442,1.6179753423539893 L 4.849128132183018,1.5783613857666283 L 4.856084221811836,1.573113054788194 L 4.863865734287939,1.5671796515251653 L 4.873780080266648,1.560517114563027 L 4.884418116598029,1.555084266509781 L 4.887816182595162,1.5536184578775987 L 5.118009643545755,1.4582211679950061 L 5.128221082450261,1.4540889934295838 L 5.138120105865934,1.450678465266343 L 5.148321466609089,1.4483216441182076 L 5.15002146660909,1.4480216441182074 L 5.154322797474479,1.4473587534166203 L 5.364297089596628,1.4196621444081274 L 5.401271383480671,1.414765548731592 L 5.4127017933549775,1.4133984274043894 L 5.424442561774546,1.4127000164957502 L 5.4361841247567355,1.413384939567712 L 5.439230795471085,1.4137526431547933 L 5.64932861651933,1.441365548731592 z M 4.345399999999995,8.068399999999995 L 4.342687839857239,8.064783786476319 L 4.331579348682667,8.050264793625344 L 4.3266134180683435,8.043155426471996 L 4.32228210466086,8.035642551366317 L 4.318617981482533,8.027782667809838 L 4.221317981482533,7.792982667809837 L 4.220602418614815,7.791214286893763 L 4.219192994374673,7.787972611141435 L 4.218387953778846,7.786067371570534 L 4.211287953778846,7.768767371570535 L 4.208364693384782,7.760668080809777 L 4.206149028166948,7.752347336263688 L 4.204657385945149,7.743866831229143 L 4.171528300418916,7.492504884118961 L 4.171305050633885,7.490942135623744 L 4.171012316151306,7.488714522061832 L 4.1705010363958905,7.484453857433366 L 4.168100756958967,7.466691789600143 L 4.16729842634098,7.457735716453011 L 4.1673038497033765,7.448743778329088 L 4.168116983195571,7.439788679526662 L 4.201557385945149,7.186133168770858 L 4.204001036395891,7.168046142566634 L 4.204512316151306,7.163785477938169 L 4.205923618926917,7.155200877383734 L 4.208075720059794,7.14677142883015 L 4.210952330911488,7.1385609323645545 L 4.212217981482533,7.135417332190164 L 4.309491754889649,6.900680621028901 L 4.316984536437148,6.8825444835902605 L 4.318984536437148,6.877844483590261 L 4.322571212590946,6.870305786682243 L 4.326774203762661,6.863092530682788 L 4.331564216702264,6.8562549892429425 L 4.487615344430326,6.652788159300962 L 4.498979348682667,6.6379352063746575 L 4.5032176745243895,6.632575587442464 L 4.509139572517936,6.625778492231675 L 4.515649539213136,6.619542330529323 L 4.517249539213136,6.618142330529323 L 4.5222601482175735,6.614036831999394 L 4.724060148217574,6.459336831999394 L 4.738728026727203,6.448137469997619 L 4.742442833456416,6.445258494782478 L 4.749536503360041,6.4402386198558865 L 4.757039212182489,6.435853570562463 L 4.76489429999419,6.432136462486192 L 4.76679429999419,6.431336462486192 L 5.002153773213261,6.333844307579787 L 5.02422398455802,6.324673857350998 L 5.032043470051813,6.321818936354044 L 5.040073310899149,6.319624264794802 L 5.0482578643762634,6.318105050633885 L 5.051433168770858,6.317657385945149 L 5.303333168770858,6.284457385945149 L 5.321668235357474,6.282078574156945 L 5.326401997926994,6.28142884203956 L 5.335637779521956,6.280595190143313 L 5.344911073873636,6.280620666034421 L 5.354142135623737,6.281505050633885 L 5.355704884118958,6.281728300418917 L 5.607066831229143,6.31485738594515 L 5.6251538574334035,6.317301036395896 L 5.629414522061851,6.31781231615131 L 5.637999122616267,6.319223618926918 L 5.6464285711698325,6.321375720059789 L 5.654639067635411,6.324252330911475 L 5.657768757566954,6.32551221837125 L 5.892612420121558,6.422788882341292 L 5.909756054257934,6.429865615037122 L 5.915455516409719,6.432284536437139 L 5.922994213317762,6.435871212590948 L 5.930207469317239,6.440074203762678 L 5.937045010757105,6.4448642167023 L 5.93887237134838,6.446261772099291 L 6.153047079888891,6.610627357000265 L 6.155757166543586,6.61265849478248 L 6.159757166543587,6.61575849478248 L 6.168392615595429,6.623280616017547 L 6.176111400011632,6.631740737490561 L 6.177411400011632,6.633340737490561 L 6.179163168000605,6.635560148217574 L 6.3338631680006054,6.837360148217574 L 6.345062530002325,6.852028026727128 L 6.34794150521753,6.855742833456425 L 6.352961380144118,6.862836503360048 L 6.3573464294375395,6.870339212182493 L 6.361063537513808,6.878194299994191 L 6.361863537513808,6.880094299994191 L 6.459355692420214,7.11545377321326 L 6.468526142649003,7.13752398455802 L 6.471381063645957,7.145343470051813 L 6.473575735205198,7.153373310899148 L 6.475094949366116,7.161557864376263 L 6.475542614054851,7.164733168770858 L 6.508742614054851,7.416633168770858 L 6.511121425843061,7.434968235357523 L 6.511771157960441,7.439701997926997 L 6.512588373484598,7.448576352828429 L 6.512612255407751,7.4574882238880456 L 6.511842614054851,7.466366831229143 L 6.478642614054851,7.718266831229143 L 6.4783538297108,7.720329973210949 L 6.477699243041033,7.725691789600141 L 6.475199243041033,7.7441917896001415 L 6.473679940593017,7.752666760022079 L 6.471437244833262,7.760979624709442 L 6.468487781628751,7.769068757566954 L 6.371421170161838,8.003405314952131 L 6.370015463562859,8.006855516409725 L 6.368227632111657,8.01105692032005 L 6.361334384962879,8.027756054257935 L 6.357638128922817,8.035703627571781 L 6.35326013128992,8.043297004094713 L 6.348234026569622,8.050477846777383 L 6.192335783297722,8.253645010757078 L 6.189161926519419,8.257743719702429 L 6.178178005126891,8.272226943485496 L 6.172476784590514,8.279086219552363 L 6.166187052221172,8.285410209628886 L 6.159358845093956,8.291148604107633 L 5.957658845093956,8.445848604107633 L 5.955100000000006,8.447799999999997 L 5.951613897423084,8.450414576932689 L 5.93732280094323,8.461422583680685 L 5.930134058479692,8.466472736680409 L 5.922529813644,8.470872455308518 L 5.914568757566954,8.474587781628752 L 5.6796687575669536,8.571887781628751 L 5.677914286893785,8.572597581385176 L 5.674672611141457,8.574007005625319 L 5.67276737157053,8.574812046221156 L 5.655467371570531,8.581912046221156 L 5.647368080809774,8.584835306615219 L 5.639047336263687,8.587050971833053 L 5.630566831229143,8.58854261405485 L 5.379204884118972,8.621671699581082 L 5.377642135623696,8.621894949366121 L 5.375414522061851,8.622187683848692 L 5.371153857433403,8.622698963604106 L 5.353391789600137,8.625099243041033 L 5.344586765187991,8.625894752540413 L 5.335745890027323,8.625909471764896 L 5.326938265539093,8.625143285667123 L 5.074938265539093,8.591943285667124 L 5.072870026789041,8.591653829710799 L 5.067508210399855,8.590999243041033 L 5.049008210399855,8.588499243041031 L 5.040551217975452,8.586983967556375 L 5.03225550622609,8.584748358638807 L 5.024182311425231,8.581808918833639 L 4.884182311425231,8.523908918833639 L 4.789756852371986,8.484706037091485 L 4.78634448359026,8.483315463562853 L 4.782143079679952,8.481527632111657 L 4.76544394574207,8.474634384962881 L 4.757496372428221,8.47093812892282 L 4.749902995905289,8.46656013128992 L 4.742722153222617,8.461534026569623 L 4.539554989242916,8.305635783297717 L 4.5353280267272025,8.302362530002384 L 4.520814807530926,8.291281491021442 L 4.514048003752245,8.285625660865263 L 4.507805828434656,8.279395629128649 L 4.502136831999394,8.272639851782428 L 4.348466920349415,8.072183561084522 L 4.345399999999995,8.068399999999995 z" /><path fill-rule="evenodd" fill="#66cc99" stroke="#555555" stroke-width="0.020000" opacity="0.6" d="M 2.831701586858096,5.088991747741454 L 3.658341733420583,6.520708042932555 L 3.658776755529682,6.519793686662807 L 3.694529678853028,6.458433817435476 L 3.726589079230823,6.4126703755859795 L 3.892227609462111,6.1967030374893435 L 3.9069711764567625,6.177432936768253 L 3.9260054550364307,6.15336294223597 L 3.9658842104771352,6.10759050611607 L 4.009043783653112,6.06624619670074 L 4.032514121929801,6.045709650708633 L 4.056319445073266,6.026204492935706 L 4.26833774265238,5.863671139935728 L 4.281435181924614,5.853670855053625 L 4.295899266872307,5.84246118921963 L 4.342926260724076,5.809182275692947 L 4.406752479736697,5.771878266806753 L 4.458827240929106,5.747235955983716 L 4.477760340684417,5.739264124507827 L 4.714753381622581,5.641095302395508 L 4.751593466763478,5.625787783952104 L 4.804172030694176,5.606591169766349 L 4.8724779108258796,5.5879221854982815 L 4.927411427975319,5.577725443868356 L 4.950079489438903,5.574529627210089 L 5.206083921306165,5.540788669933392 L 5.22242584454986,5.538668450763848 L 5.241652240921288,5.536029533614802 L 5.302885900918673,5.530502382907945 L 5.3817837849480945,5.530719133700706 L 5.438957818734337,5.536196708906959 L 5.706300938035977,5.571450353620316 L 5.720046824684,5.573307493745117 L 5.73497710388261,5.575099127248947 L 5.791888203980438,5.584455275274926 L 5.863598414295535,5.602763427211189 L 5.918810098396067,5.62210726717132 L 5.941322506798235,5.631169858563953 L 6.179205571033737,5.729705499901186 L 6.199354202047654,5.7380226673549 L 6.223210321508352,5.748147496040159 L 6.2735063133373155,5.77207675552964 L 6.334866182564152,5.807829678852698 L 6.380210039807511,5.839595140874129 L 6.394989265766246,5.85089821214569 L 6.606266788233344,6.013040389405422 L 6.610400020307387,6.016138136782264 L 6.636172360679425,6.036111700570599 L 6.693448724753048,6.086003692507451 L 6.744645125039955,6.142117160905276 L 6.7628401345370985,6.164511018747918 L 6.7711613608323225,6.175053635702768 L 6.929528859976016,6.381637742536481 L 6.939529144946284,6.394735181924494 L 6.950738810762868,6.4091992668471525 L 6.984017724305687,6.456226260721755 L 7.021321733190422,6.52005247973187 L 7.045964044019957,6.572127240938034 L 7.053935875497157,6.5910603406964325 L 7.152104697604608,6.828053381622859 L 7.16741221605018,6.864893466769253 L 7.1866088302345155,6.91747203069606 L 7.205277814501649,6.985777910824332 L 7.215474556131611,7.040711427974009 L 7.218670372787483,7.063379489420442 L 7.252411330081661,7.319383921420697 L 7.254531549236156,7.335725844549883 L 7.25707817310651,7.354279818460841 L 7.262496034271008,7.413113775182376 L 7.262699208703402,7.4889311343000395 L 7.2575967481252555,7.547793283242666 L 7.2224408623580505,7.814533271940216 L 7.221342535214069,7.823177838295701 L 7.216280607170888,7.860636105815136 L 7.206208620400087,7.916819645889209 L 7.187130097994224,7.987536850621448 L 7.1675770758726705,8.041162538667072 L 7.065163416417811,8.28840784808068 L 7.063620917093904,8.292193797026043 L 7.047972601367374,8.329868633319395 L 7.023814150726685,8.381813372951793 L 6.986569593006825,8.446411843282567 L 6.953251884374437,8.494013164295627 L 6.895634769729238,8.5691 L 8.859421693692193,8.5691 L 8.989083805265572,8.344490649691439 L 10.028432602750298,6.544338532447894 L 10.018949470123943,6.54301561423197 L 9.9616569354565,6.535548272634634 L 9.904486096991787,6.5255345523667145 L 9.832527631674056,6.506317037098371 L 9.777976500996814,6.486493837409411 L 9.66415188381087,6.439393978252945 L 9.596032766491925,6.4111622278451375 L 9.543594661258732,6.386695295583892 L 9.479301648430651,6.34955246914525 L 9.43191400630835,6.316349193550285 L 9.33646694775838,6.24305948787792 L 9.32579205613917,6.234950156680071 L 9.275642622049046,6.196384535534702 L 9.231633855372584,6.159396786707964 L 9.179484846092816,6.107218890059187 L 9.14252147436469,6.063189646859029 L 9.068012209197295,5.966189194837752 L 9.059735666430146,5.955398619912975 L 9.022445021003504,5.906770530262109 L 8.98931147670888,5.859424442670885 L 8.952245986735187,5.795196518105554 L 8.927830051888984,5.742819558524064 L 8.880371377199227,5.628215647791939 L 8.875600833470298,5.616534217796877 L 8.853061448222853,5.562282441678197 L 8.833199964451834,5.507883591884705 L 8.813902356236625,5.436119264479577 L 8.803802048232038,5.3790956099566865 L 8.78723579537394,5.25395485095674 L 8.786641331749394,5.249071489512192 L 8.785759273188539,5.241999574027054 L 8.777307752303184,5.178398298211732 L 8.771565551130019,5.09813163693368 L 8.775721901527682,5.0150167760715325 L 8.779680192325417,4.981620567755207 L 8.794139455456312,4.872395918205237 L 8.79997013461637,4.827660534994556 L 8.804489459796267,4.79375654556499 L 8.818145777873564,4.721870315099108 L 8.843648942484306,4.638867113371622 L 8.858797817932967,4.6019816152091835 L 8.89977919584753,4.502774220158229 L 8.916686930073043,4.462077172428158 L 8.928846694421978,4.4324707896661435 L 8.961901359715947,4.3635757935871915 L 9.005505289756673,4.294428770157936 L 9.028780565044205,4.262803115163879 L 9.097852460872735,4.172988266098844 L 9.125360541086435,4.137116923402552 L 9.145247755579291,4.111315944843598 L 9.189540761516401,4.059582428309792 L 9.238898812718448,4.01267061928544 L 9.26180402840105,3.993037577271801 L 9.266762118315638,3.989011595012209 L 9.23364187981833,3.738822743048679 L 10.028431544466821,3.633559634605125 L 8.859459469059706,1.6089 L 7.0384128227373735,1.6089 L 7.053384643195313,1.635726435452547 L 7.0746943876096795,1.6849091396220677 L 7.182173882812663,1.944245629659102 L 7.202887702007507,2.001479362130931 L 7.2226516827846785,2.0772376643489676 L 7.2317380675696965,2.1324404905589867 L 7.2609011438490105,2.354447044993657 L 7.265404153299178,2.3884493612500264 L 7.2687622685006,2.412675763774787 L 7.274279624664728,2.471937501651792 L 7.2745109884190695,2.54831335892311 L 7.269352770855207,2.607607436086634 L 7.240189079984091,2.8278037926999464 L 7.2400088391907,2.829333745003748 L 7.231243608416658,2.897012941752044 L 7.221205080250697,2.954540776529676 L 7.2018555346846815,3.027001315990255 L 7.181862189924527,3.0819208482336 L 7.095179994057966,3.2908773129921083 L 7.090866568592337,3.301421027273549 L 7.069781920814532,3.352437028190725 L 7.045296313420517,3.4050352713438587 L 7.008094610952418,3.469525476724273 L 6.974821080976584,3.5170543348696444 L 6.836214756757914,3.697672343405758 L 6.79685134340108,3.749147883138311 L 6.7594869409556635,3.7938156711438373 L 6.706602945983326,3.846782945104539 L 6.661922984602797,3.884277186119245 L 6.483518509069648,4.021078714353769 L 6.480630862149737,4.023329014293522 L 6.471145630692086,4.030561503279677 L 6.430074830650785,4.062197119527706 L 6.382180660042789,4.095828087441832 L 6.317154589701867,4.1333963982698165 L 6.264096740646179,4.158089681438554 L 6.206887728598837,4.181701891599631 L 6.052606974477642,4.245608140045201 L 6.046499253037139,4.248107598429971 L 6.0418858419035475,4.250088303015429 L 5.99373926551657,4.270051517614897 L 5.939376163993658,4.289859030195486 L 5.867665111053315,4.309097273725386 L 5.810687624087258,4.3191595966607075 L 5.582717606973847,4.349229927489461 L 5.571043419894272,4.350714298498987 L 5.519806940542234,4.357499670088875 L 5.461971980836562,4.362594395058648 L 5.387468788879744,4.362613714151668 L 5.32963119477886,4.357548983720668 L 5.107836339312197,4.328293186118642 L 5.101274334897313,4.327489985058358 L 5.0890948227982316,4.325784853364527 L 5.039978203264137,4.319412967587105 L 4.982519485118306,4.309371316907654 L 4.910204425503209,4.290054307673155 L 4.855392061181928,4.2701057799811695 L 4.646281155170469,4.183403865474373 L 4.635216789449797,4.178876968162688 L 4.584041807471808,4.157665308966014 L 4.531725718369471,4.1332598266876595 L 4.467571133892146,4.096220277596153 L 4.420277230726602,4.063116086502072 L 4.2393003364531125,3.924316922641905 L 4.230088031956404,3.917260691867335 L 4.18712596426839,3.884313594350746 L 4.142727847386189,3.847073379009768 L 4.090145517799918,3.794492778416328 L 4.052903842568595,3.7500958860926636 L 3.9160456071132117,3.571649721723713 L 3.913772481347979,3.5687328236466263 L 3.9059911982747986,3.5585278622389396 L 3.8740727682088987,3.5169073543115736 L 3.84098712094628,3.469639031413303 L 3.8039653745168858,3.4055209930637242 L 3.803828762832706,3.405228215349126 L 2.831701586858096,5.088991747741454 z" /></svg>
