<svg xmlns="http://www.w3.org/2000/svg" viewBox="1.9 0.7 12 9.5">
<path fill-rule="evenodd" fill="#66cc99" stroke="#555555" stroke-width="0.020000" opacity="0.6" d="M 1.96567050848572,5.0889993207456685 L 4.407934180110622,0.8589 L 9.292465819889378,0.8589 L 11.388596428150576,4.489398213508395 L 11.73473132143724,5.0889961513191055 L 9.638598094737127,8.7194988999637 L 9.292461375709614,9.3191 L 4.408033605991806,9.3191 L 1.96567050848572,5.0889993207456685 z M 9.531011626532635,5.157343152607464 L 9.529620300397955,5.146188178013494 L 9.523771369963711,5.102172498135451 L 9.522905752139222,5.090072564570037 L 9.523511626532636,5.0779568473925485 L 9.523864884641357,5.074976399014427 L 9.537751700642005,4.9700759903764435 L 9.543538716768287,4.925675608028229 L 9.54517720993174,4.913383627990886 L 9.54723595090558,4.902546510161809 L 9.550475782149864,4.892002078894679 L 9.552357481124492,4.887654419605618 L 9.55227530721316,4.8876204745543115 L 9.59267530721316,4.789820474554311 L 9.60987500950767,4.748420657413236 L 9.614398018162156,4.737408114602314 L 9.619381537967701,4.7270210913361925 L 9.625526652879257,4.717276180628188 L 9.62813058538009,4.713738045423258 L 9.692688524808311,4.6297927371884215 L 9.719946539745978,4.594247486940034 L 9.727498980280311,4.584449213966066 L 9.734177545537037,4.57664875746461 L 9.741620862654388,4.569574339763484 L 9.742320862654388,4.568974339763484 L 9.74645175942161,4.565620040549969 L 9.83035175942161,4.501120040549969 L 9.865948255139465,4.473822636042483 L 9.875449213966071,4.466498980280306 L 9.883602581468937,4.460836208470576 L 9.892277223335904,4.456009721685584 L 9.899099065725576,4.453057494679847 L 9.899073157626205,4.452994867447046 L 9.99690331384018,4.412523760943818 L 10.038608114602312,4.395198018162156 L 10.04980811460231,4.390598018162156 L 10.058564217915022,4.387469099942123 L 10.067573092263155,4.385167001458114 L 10.0755807829496,4.38389800069842 L 10.075576399014428,4.3838648846413575 L 10.225056591061106,4.364067508850706 L 10.23779652654108,4.362472212328633 L 10.246056020478623,4.361785899725183 L 10.254343979521353,4.361785899725181 L 10.262603473458896,4.362472212328631 L 10.36902400962284,4.376551700641909 L 10.413424391971777,4.382338716768288 L 10.425716372009102,4.383977209931737 L 10.436553489838182,4.386035950905578 L 10.447097921105318,4.389275782149862 L 10.451412521121243,4.391143172827491 L 10.451446204229695,4.391061549651314 L 10.549346204229694,4.431461549651314 L 10.59077934258665,4.448675009507622 L 10.601791885397684,4.453198018162154 L 10.612178908663843,4.458181537967721 L 10.621923819371881,4.464326652879306 L 10.625461954576743,4.466930585380089 L 10.744807218901368,4.5587115914383425 L 10.754353700192107,4.565994474072515 L 10.76195996430803,4.572420746633081 L 10.768889415636593,4.57957161630809 L 10.773424095051888,4.58529470642614 L 10.77347995945003,4.585251759421609 L 10.837979959450031,4.6691517594216085 L 10.8652773639573,4.7047482551391795 L 10.872601019719701,4.714249213966079 L 10.87826379152941,4.722402581468915 L 10.88309027831439,4.7310772233358485 L 10.886042505320157,4.737899065725576 L 10.886105132552956,4.737873157626205 L 10.926576239056477,4.83570331384089 L 10.943901981837847,4.877408114602315 L 10.948501981837847,4.888608114602316 L 10.951630900057877,4.897364217915019 L 10.953932998541884,4.906373092263144 L 10.95520199930158,4.9143807829496 L 10.955235115358642,4.914376399014427 L 10.975032491149294,5.063856591061107 L 10.976627787671367,5.0765965265410795 L 10.977322775939957,5.085070769992324 L 10.977295364398504,5.093573420130478 L 10.976545751220973,5.102043006357001 L 10.962745751220973,5.206943006357001 L 10.962419484469082,5.208791164002966 L 10.960942251625209,5.219870410332017 L 10.955161283231712,5.2642243919717755 L 10.953650803641079,5.272848098483424 L 10.951391831982331,5.281306639116283 L 10.948401683242189,5.2895351792726295 L 10.90758139171362,5.388184180349785 L 10.885779973113406,5.440787603314474 L 10.882089528264702,5.448697051596228 L 10.877723457628838,5.456254576489054 L 10.872715021388471,5.463402605709003 L 10.808560067568848,5.546953243241537 L 10.800353460254023,5.557752513059966 L 10.773053460254022,5.593352513059966 L 10.767448656017017,5.600036180937951 L 10.761282733310308,5.606205998116218 L 10.754602605709005,5.611815021388471 L 10.670602605709005,5.676315021388471 L 10.669295093684083,5.677283532572701 L 10.660252513059966,5.684253460254023 L 10.624652513059965,5.711553460254023 L 10.617500585414504,5.7165578515974635 L 10.60993949151906,5.72091948671156 L 10.602026842373796,5.724605132552954 L 10.504126842373797,5.765105132552954 L 10.502416214539107,5.765779489511905 L 10.492079342586566,5.770024990492414 L 10.450866486188001,5.787147240010657 L 10.442660884330754,5.790143175195642 L 10.434225132216508,5.792411570165505 L 10.425623600985572,5.793935115358643 L 10.320623600985574,5.807835115358643 L 10.307388178013444,5.809479699602052 L 10.263372498135455,5.81532863003629 L 10.254649805908658,5.816100947079471 L 10.245892991754372,5.816107205345622 L 10.237169204528916,5.815347356845208 L 10.132169204528916,5.801547356845207 L 10.130318847935616,5.801220819394226 L 10.119229589668281,5.799742251625248 L 10.074875608028224,5.793961283231712 L 10.066251901516575,5.79245080364108 L 10.057793360883716,5.79019183198233 L 10.049564820727369,5.787201683242189 L 9.950915819650211,5.746381391713617 L 9.89831239668553,5.724579973113407 L 9.890402948403773,5.720889528264704 L 9.882845423510945,5.7165234576288375 L 9.875697394290995,5.711515021388471 L 9.791697394290996,5.647015021388471 L 9.790555234838349,5.646088130078896 L 9.781239715820911,5.63907069920724 L 9.745739715820912,5.6117706992072405 L 9.739101303961572,5.606191358339389 L 9.73297121777893,5.60005787646306 L 9.727395554023213,5.593416375863265 L 9.662795554023212,5.509316375863265 L 9.661821555235905,5.508001694084435 L 9.654846539745979,5.498952513059966 L 9.627546539745978,5.463352513059966 L 9.622548613269394,5.456210739676751 L 9.618191624024066,5.4486608495557896 L 9.614508678242524,5.440760209930244 L 9.574008678242524,5.3429602099302445 L 9.573327895532078,5.341234195515761 L 9.56907500950748,5.330879342586306 L 9.551952759989344,5.289666486188001 L 9.548956824804359,5.2814608843307544 L 9.546688429834497,5.273025132216509 L 9.545164884641359,5.264423600985574 L 9.531264884641358,5.159423600985574 L 9.531011626532635,5.157343152607464 z M 5.64932861651933,1.441365548731592 L 5.68632861651933,1.446265548731592 L 5.697030109906819,1.447747064243675 L 5.7078711309989485,1.4498656948163733 L 5.718412344158839,1.4531670822430958 L 5.720012344158839,1.4537670822430957 L 5.723183817404838,1.4550184578775986 L 5.962821951676596,1.5543342703179548 L 5.973035088409097,1.5592680539326664 L 5.982623819371906,1.565326652879324 L 5.984023819371906,1.566326652879324 L 5.986802605709005,1.5683849786115294 L 6.154713953785924,1.6973169065991638 L 6.184857166543582,1.7203584947824757 L 6.192857166543582,1.7265584947824757 L 6.2002299570974655,1.7328681019854417 L 6.206956464948263,1.7398626195342308 L 6.211895536853623,1.746112355630254 L 6.211915021388471,1.7460973942909956 L 6.340915021388471,1.9140973942909956 L 6.363547129060969,1.9437081545447337 L 6.369541505217522,1.951442833456415 L 6.375271677962415,1.9596550886942328 L 6.3801517940956245,1.9683992571683515 L 6.384132917756913,1.9775876558411838 L 6.482765729682048,2.2155780483234095 L 6.48589744964778,2.2242312098195787 L 6.488220450666132,2.2331356210910376 L 6.4897150604322915,2.2422158752432875 L 6.489835777569324,2.2432419709080658 L 6.517340928186571,2.4525202908218953 L 6.522194606270488,2.489170513088206 L 6.523552935756326,2.4989698900931887 L 6.524385150189191,2.507908677459962 L 6.524412345243863,2.516886080251396 L 6.523634301743156,2.52582974553816 L 6.495972303279721,2.7346877842962503 L 6.495665561734324,2.7372915230254677 L 6.489573403153053,2.784331060246216 L 6.488057938706832,2.7930157386006793 L 6.485783474118277,2.801533196052505 L 6.482767686587718,2.809817234691887 L 6.401717906972508,3.0051961732217696 L 6.397217945163841,3.0161958559492166 L 6.382917945163841,3.0507958559492163 L 6.379224509653542,3.058729831852486 L 6.374851538096793,3.0663105019591637 L 6.369832522837645,3.0734798063417967 L 6.2408325228376444,3.2415798063417975 L 6.239480256945469,3.2433114349309022 L 6.2110509670675675,3.2805251499135935 L 6.205405947884743,3.287273565615245 L 6.199189616373215,3.2934996862850965 L 6.192450091511654,3.299155317169194 L 6.024818257489596,3.4276963249350674 L 6.022734265712062,3.429320348474835 L 6.014928897728416,3.435271941562365 L 5.9855228009432295,3.457922583680684 L 5.978298477932846,3.4629954552280795 L 5.970654930989573,3.467411455547454 L 5.962651722352602,3.4711361730143024 L 5.920310321011543,3.488611987247051 L 5.767068888959072,3.552087727203554 L 5.756507248198191,3.5564098597396634 L 5.750301502270043,3.559074211357164 L 5.721601502270042,3.570974211357164 L 5.7134012827789515,3.573962009076265 L 5.70497178020678,3.5762234292712005 L 5.696377202525522,3.57774124658338 L 5.486377202525522,3.6054412465833794 L 5.483468374911533,3.6057855709891347 L 5.474510088370827,3.6069501482394264 L 5.43762861651933,3.6118344512684084 L 5.428904736916218,3.6126029443645127 L 5.420147074453475,3.612605215275212 L 5.411422797474478,3.6118412465833796 L 5.202438556455098,3.5842752300298715 L 5.1988352155465565,3.583834174667433 L 5.189334685035106,3.5825041003958296 L 5.152834834424952,3.577768984640999 L 5.14416776242763,3.5762543022356263 L 5.135667376648653,3.5739836544416086 L 5.127399480614256,3.5709746188884277 L 4.931912193190197,3.4899213519656707 L 4.9208096435457565,3.4853788320049945 L 4.886309643545756,3.4710788320049946 L 4.87841817480134,3.4673974578064133 L 4.8708768926540085,3.4630435103436605 L 4.863742980983383,3.458050004640272 L 4.695542980983383,3.329050004640272 L 4.693788565069099,3.3276802569454698 L 4.686145590216865,3.321852005708403 L 4.656545590216866,3.299152005708403 L 4.6498485193176995,3.293534642181466 L 4.643667579097873,3.287353905201044 L 4.638049995359729,3.2806570190166173 L 4.5094063719560395,3.1129216898964582 L 4.507779651525166,3.110834265712062 L 4.5017636703853485,3.1029444543811544 L 4.479147994291596,3.0734544097831322 L 4.474157282113615,3.06632435145758 L 4.469805423344262,3.0587873583554988 L 4.466125381111572,3.0509005193857437 L 4.385025381111572,2.855300519385744 L 4.380424725772921,2.844057681163201 L 4.366221167995006,2.809790356454243 L 4.363240265903008,2.8016084890512776 L 4.360982464578112,2.7931983127951527 L 4.3594648846413575,2.7846236009855727 L 4.3316648846413575,2.5746236009855727 L 4.331314429010866,2.5716683749115328 L 4.325331015359001,2.5255651655750495 L 4.324504209917006,2.5136175868774986 L 4.325111626532641,2.501656847392494 L 4.3255526431547935,2.4978692045289157 L 4.353165548731592,2.2877713834806697 L 4.3580655487315925,2.2507713834806697 L 4.3595658253325675,2.2400352155465564 L 4.361447081821597,2.230208007905195 L 4.364300966641703,2.2206179882265125 L 4.364900966641702,2.2189179882265124 L 4.366825381111572,2.2138994806142565 L 4.462221167995007,1.983809643545755 L 4.466280561817147,1.9741273323749347 L 4.470386586048563,1.9655133604300055 L 4.475294970566209,1.9573299803774884 L 4.476294970566208,1.9558299803774888 L 4.480167477162356,1.9504201936582033 L 4.609108179729153,1.7823974641893763 L 4.631749032932433,1.7527748500864067 L 4.638733624643059,1.7438618319983434 L 4.646669550968871,1.734909098323372 L 4.65561784480679,1.7269681661177734 L 4.657894841373486,1.7251869389527854 L 4.797509945891442,1.6179753423539893 L 4.849128132183018,1.5783613857666283 L 4.856084221811836,1.573113054788194 L 4.863865734287939,1.5671796515251653 L 4.873780080266648,1.560517114563027 L 4.884418116598029,1.555084266509781 L 4.887816182595162,1.5536184578775987 L 5.118009643545755,1.4582211679950061 L 5.128221082450261,1.4540889934295838 L 5.138120105865934,1.450678465266343 L 5.148321466609089,1.4483216441182076 L 5.15002146660909,1.4480216441182074 L 5.154322797474479,1.4473587534166203 L 5.364297089596628,1.4196621444081274 L 5.401271383480671,1.414765548731592 L 5.4127017933549775,1.4133984274043894 L 5.424442561774546,1.4127000164957502 L 5.4361841247567355,1.413384939567712 L 5.439230795471085,1.4137526431547933 L 5.64932861651933,1.441365548731592 z M 4.345399999999995,8.068399999999995 L 4.342687839857239,8.064783786476319 L 4.331579348682667,8.050264793625344 L 4.3266134180683435,8.043155426471996 L 4.32228210466086,8.035642551366317 L 4.318617981482533,8.027782667809838 L 4.221317981482533,7.792982667809837 L 4.220602418614815,7.791214286893763 L 4.219192994374673,7.787972611141435 L 4.218387953778846,7.786067371570534 L 4.211287953778846,7.768767371570535 L 4.208364693384782,7.760668080809777 L 4.206149028166948,7.752347336263688 L 4.204657385945149,7.743866831229143 L 4.171528300418916,7.492504884118961 L 4.171305050633885,7.490942135623744 L 4.171012316151306,7.488714522061832 L 4.1705010363958905,7.484453857433366 L 4.168100756958967,7.466691789600143 L 4.16729842634098,7.457735716453011 L 4.1673038497033765,7.448743778329088 L 4.168116983195571,7.439788679526662 L 4.201557385945149,7.186133168770858 L 4.204001036395891,7.168046142566634 L 4.204512316151306,7.163785477938169 L 4.205923618926917,7.155200877383734 L 4.208075720059794,7.14677142883015 L 4.210952330911488,7.1385609323645545 L 4.212217981482533,7.135417332190164 L 4.309491754889649,6.900680621028901 L 4.316984536437148,6.8825444835902605 L 4.318984536437148,6.877844483590261 L 4.322571212590946,6.870305786682243 L 4.326774203762661,6.863092530682788 L 4.331564216702264,6.8562549892429425 L 4.487615344430326,6.652788159300962 L 4.498979348682667,6.6379352063746575 L 4.5032176745243895,6.632575587442464 L 4.509139572517936,6.625778492231675 L 4.515649539213136,6.619542330529323 L 4.517249539213136,6.618142330529323 L 4.5222601482175735,6.614036831999394 L 4.724060148217574,6.459336831999394 L 4.738728026727203,6.448137469997619 L 4.742442833456416,6.445258494782478 L 4.749536503360041,6.4402386198558865 L 4.757039212182489,6.435853570562463 L 4.76489429999419,6.432136462486192 L 4.76679429999419,6.431336462486192 L 5.002153773213261,6.333844307579787 L 5.02422398455802,6.324673857350998 L 5.032043470051813,6.321818936354044 L 5.040073310899149,6.319624264794802 L 5.0482578643762634,6.318105050633885 L 5.051433168770858,6.317657385945149 L 5.303333168770858,6.284457385945149 L 5.321668235357474,6.282078574156945 L 5.326401997926994,6.28142884203956 L 5.335637779521956,6.280595190143313 L 5.344911073873636,6.280620666034421 L 5.354142135623737,6.281505050633885 L 5.355704884118958,6.281728300418917 L 5.607066831229143,6.31485738594515 L 5.6251538574334035,6.317301036395896 L 5.629414522061851,6.31781231615131 L 5.637999122616267,6.319223618926918 L 5.6464285711698325,6.321375720059789 L 5.654639067635411,6.324252330911475 L 5.657768757566954,6.32551221837125 L 5.892612420121558,6.422788882341292 L 5.909756054257934,6.429865615037122 L 5.915455516409719,6.432284536437139 L 5.922994213317762,6.435871212590948 L 5.930207469317239,6.440074203762678 L 5.937045010757105,6.4448642167023 L 5.93887237134838,6.446261772099291 L 6.153047079888891,6.610627357000265 L 6.155757166543586,6.61265849478248 L 6.159757166543587,6.61575849478248 L 6.168392615595429,6.623280616017547 L 6.176111400011632,6.631740737490561 L 6.177411400011632,6.633340737490561 L 6.179163168000605,6.635560148217574 L 6.3338631680006054,6.837360148217574 L 6.345062530002325,6.852028026727128 L 6.34794150521753,6.855742833456425 L 6.352961380144118,6.862836503360048 L 6.3573464294375395,6.870339212182493 L 6.361063537513808,6.878194299994191 L 6.361863537513808,6.880094299994191 L 6.459355692420214,7.11545377321326 L 6.468526142649003,7.13752398455802 L 6.471381063645957,7.145343470051813 L 6.473575735205198,7.153373310899148 L 6.475094949366116,7.161557864376263 L 6.475542614054851,7.164733168770858 L 6.508742614054851,7.416633168770858 L 6.511121425843061,7.434968235357523 L 6.511771157960441,7.439701997926997 L 6.512588373484598,7.448576352828429 L 6.512612255407751,7.4574882238880456 L 6.511842614054851,7.466366831229143 L 6.478642614054851,7.718266831229143 L 6.4783538297108,7.720329973210949 L 6.477699243041033,7.725691789600141 L 6.475199243041033,7.7441917896001415 L 6.473679940593017,7.752666760022079 L 6.471437244833262,7.760979624709442 L 6.468487781628751,7.769068757566954 L 6.371421170161838,8.003405314952131 L 6.370015463562859,8.006855516409725 L 6.368227632111657,8.01105692032005 L 6.361334384962879,8.027756054257935 L 6.357638128922817,8.035703627571781 L 6.35326013128992,8.043297004094713 L 6.348234026569622,8.050477846777383 L 6.192335783297722,8.253645010757078 L 6.189161926519419,8.257743719702429 L 6.178178005126891,8.272226943485496 L 6.172476784590514,8.279086219552363 L 6.166187052221172,8.285410209628886 L 6.159358845093956,8.291148604107633 L 5.957658845093956,8.445848604107633 L 5.955100000000006,8.447799999999997 L 5.951613897423084,8.450414576932689 L 5.93732280094323,8.461422583680685 L 5.930134058479692,8.466472736680409 L 5.922529813644,8.470872455308518 L 5.914568757566954,8.474587781628752 L 5.6796687575669536,8.571887781628751 L 5.677914286893785,8.572597581385176 L 5.674672611141457,8.574007005625319 L 5.67276737157053,8.574812046221156 L 5.655467371570531,8.581912046221156 L 5.647368080809774,8.584835306615219 L 5.639047336263687,8.587050971833053 L 5.630566831229143,8.58854261405485 L 5.379204884118972,8.621671699581082 L 5.377642135623696,8.621894949366121 L 5.375414522061851,8.622187683848692 L 5.371153857433403,8.622698963604106 L 5.353391789600137,8.625099243041033 L 5.344586765187991,8.625894752540413 L 5.335745890027323,8.625909471764896 L 5.326938265539093,8.625143285667123 L 5.074938265539093,8.591943285667124 L 5.072870026789041,8.591653829710799 L 5.067508210399855,8.590999243041033 L 5.049008210399855,8.588499243041031 L 5.040551217975452,8.586983967556375 L 5.03225550622609,8.584748358638807 L 5.024182311425231,8.581808918833639 L 4.884182311425231,8.523908918833639 L 4.789756852371986,8.484706037091485 L 4.78634448359026,8.483315463562853 L 4.782143079679952,8.481527632111657 L 4.76544394574207,8.474634384962881 L 4.757496372428221,8.47093812892282 L 4.749902995905289,8.46656013128992 L 4.742722153222617,8.461534026569623 L 4.539554989242916,8.305635783297717 L 4.5353280267272025,8.302362530002384 L 4.520814807530926,8.291281491021442 L 4.514048003752245,8.285625660865263 L 4.507805828434656,8.279395629128649 L 4.502136831999394,8.272639851782428 L 4.348466920349415,8.072183561084522 L 4.345399999999995,8.068399999999995 z" /><path fill-rule="evenodd" fill="#66cc99" stroke="#555555" stroke-width="0.020000" opacity="0.6" d="M 2.0811413189353702,5.088998311011773 L 4.465767293348477,9.219100000000001 L 9.234722751440625,9.219100000000001 L 9.551996189474252,8.669497799927399 L 11.619262642874478,5.088992302638211 L 11.301992856301151,4.539396427016791 L 9.234731639778754,0.9589 L 4.465669033392286,0.9589 L 2.0811413189353702,5.088998311011773 z M 9.431762253894913,5.169573597528455 L 9.430438830103368,5.158963030815327 L 9.424242887608518,5.112335938141867 L 9.422727058671377,5.091147107555194 L 9.423806329865942,5.069564837874808 L 9.424640258995975,5.062528954870983 L 9.438603401283803,4.957051980754454 L 9.439616548671191,4.949278694764989 L 9.421671088984478,4.941865641886156 L 9.456292624135186,4.858054103822938 L 9.456508529441402,4.857351413315331 L 9.458140770691717,4.853580125277653 L 9.500289159041166,4.75154764060948 L 9.517449932249743,4.710241526081837 L 9.522991174994516,4.696749804615972 L 9.531717514200812,4.678561718303349 L 9.542857137796876,4.660896525898214 L 9.548217249338421,4.653613388051393 L 9.61337704961686,4.568885474376532 L 9.64066840660629,4.5332967451165525 L 9.649865483654505,4.521364778081836 L 9.661559307668393,4.507706580242986 L 9.674591255930254,4.495320510428907 L 9.678251951567416,4.4921827713113185 L 9.684448662213043,4.487151025708351 L 9.769451296044306,4.42180335130894 L 9.77590360034942,4.41685535974205 L 9.768441182674847,4.398816577278102 L 9.958607467986793,4.320147174263423 L 9.965869570910703,4.317130223576363 L 9.963318463170927,4.297859265755764 L 10.212279191227053,4.264886541925557 L 10.227439121223563,4.262988213347965 L 10.241908478227161,4.261785899725546 L 10.258491521776342,4.261785899725543 L 10.273308102138762,4.263017065450663 L 10.382044098181725,4.277402890223797 L 10.38975446811592,4.278407837316357 L 10.397153958068975,4.260476895055692 L 10.481011551950495,4.295082071693215 L 10.481748586688482,4.295308529442501 L 10.485605889787202,4.296977998645237 L 10.587602310962273,4.3390684523272895 L 10.62895839218458,4.35624989868059 L 10.64245019538944,4.361791174997059 L 10.660638281697901,4.370517514201372 L 10.67830347409522,4.3816571377925095 L 10.685586360621246,4.387017064371509 L 10.77641005063192,4.4568639048831855 L 10.79181167832611,4.445023559398973 L 10.917296648714203,4.6082512960750766 L 10.92224464025067,4.614703600340409 L 10.940283422716629,4.607241182662091 L 11.018952825737415,4.797407467988814 L 11.021969776384998,4.804669570817699 L 11.04124073422833,4.802118463051246 L 11.074213458072686,5.051079191214134 L 11.076118465715686,5.066292459797725 L 11.077335974446626,5.081137984328573 L 11.077281126558363,5.098150978855341 L 11.07596887957005,5.112977544544413 L 11.061604946469165,5.2221642534054 L 11.061263471433254,5.2240985592927505 L 11.06008450325048,5.232940820663558 L 11.054039548483864,5.279320214992827 L 11.05139530347247,5.294416872415117 L 11.046875192662993,5.311342069683041 L 11.041640637135696,5.325746955225663 L 10.999983069918866,5.426419371795028 L 10.977324273741862,5.481091554012701 L 10.970863630574966,5.494938156547166 L 10.962127325831476,5.5100604131656885 L 10.953359577676043,5.522573724107551 L 10.88802767446565,5.607657132939691 L 10.879840168883929,5.618431266332939 L 10.851079295505798,5.655936288027576 L 10.841267552061215,5.6676366849932265 L 10.828929834073822,5.67998219563293 L 10.817235634705554,5.689801324895392 L 10.730819464724654,5.756156598273552 L 10.7295859749757,5.757070279060796 L 10.721203171117043,5.763531657630639 L 10.68377252614806,5.792235494924644 L 10.671252389800234,5.8009961626863715 L 10.656122990326605,5.809723592991027 L 10.642271137897584,5.816175670084712 L 10.541580253022241,5.857830224093433 L 10.539751404592375,5.858551185509065 L 10.53025868517323,5.862449980984786 L 10.487215280263689,5.880332748241959 L 10.472850578665117,5.885577423244441 L 10.455971016521003,5.890116379977952 L 10.440913202179274,5.8927834935468715 L 10.33335100470271,5.907022679689009 L 10.320140056585648,5.908664222778503 L 10.274373827195381,5.914745771278475 L 10.2591038831975,5.916097789404454 L 10.241581849198734,5.916110311944083 L 10.2263099882997,5.914780121247914 L 10.116957078861875,5.900408024578943 L 10.11501450598764,5.90006521347064 L 10.106159179336403,5.898884503250475 L 10.05977978502324,5.892839548486038 L 10.044683127577656,5.890195303470565 L 10.027757930328473,5.885675192666093 L 10.01335304475125,5.8804406371262 L 9.912680628204965,5.83878306991886 L 9.858008445997948,5.816124273746369 L 9.844161843450541,5.809663630573445 L 9.829039586826019,5.8009273258265015 L 9.816526275904641,5.792159577685421 L 9.729728052244717,5.725510941660837 L 9.728943896888474,5.7248745797395415 L 9.720673658481205,5.718644564406385 L 9.683060103309991,5.68971921071136 L 9.671438977480685,5.6799520821204 L 9.659173034893737,5.667679344949736 L 9.649412343399518,5.656052811992681 L 9.58296178912419,5.569543653872625 L 9.582037459475902,5.568296014384439 L 9.575568343064276,5.559903172023541 L 9.54686633724544,5.522474915351355 L 9.538116995058324,5.509972566738325 L 9.529398872385151,5.494865605362616 L 9.522951528065771,5.481034789751777 L 9.481293663759487,5.380438761871424 L 9.480559629685867,5.378577737240908 L 9.47665001901509,5.369058685172923 L 9.458767251752988,5.326015280251179 L 9.453522576755836,5.311650578667201 L 9.448983620022661,5.294771016524345 L 9.44631650645316,5.279713202179359 L 9.432061006085767,5.1720277677494755 L 9.431762253894913,5.169573597528455 z M 5.662359434765997,1.34221819487975 L 5.699749651278853,1.347169823122027 L 5.713489306685955,1.3490719420020043 L 5.732479823945811,1.352783205924117 L 5.750937016923917,1.3585637877135421 L 5.755922832484767,1.3604334685488624 L 5.7606813864764295,1.3623110623542474 L 6.003747727972788,1.4630476636300678 L 6.021648416320186,1.4716951658787565 L 6.0384383547071065,1.482303817161178 L 6.042851181402491,1.4854558362293042 L 6.0470194647644835,1.488543401756946 L 6.215078526101232,1.6175887524262473 L 6.230327437083576,1.6058797672138834 L 6.420297910631938,1.8532831746258318 L 6.442794052781692,1.8827160441343118 L 6.45011751394884,1.8921656714467712 L 6.460149813201715,1.906543562961507 L 6.469916173975866,1.9240428809402494 L 6.4762077804041365,1.9385638536791119 L 6.57602015009918,2.1794003925008125 L 6.581496149962601,2.1945309634617205 L 6.5861446149483065,2.2123492268575164 L 6.588761172339645,2.228245688031004 L 6.589071555138642,2.230883941816092 L 6.616481856373149,2.439440581643849 L 6.621289212540981,2.4757410261764634 L 6.622914180122091,2.4874640065835267 L 6.624371080119254,2.503112520686397 L 6.624425497667211,2.5210763840739387 L 6.623063430957993,2.536733437611986 L 6.595201206840771,2.747103252079885 L 6.59491133207649,2.7495638191765788 L 6.588462763855018,2.7993553111128993 L 6.585810890912856,2.814552410323673 L 6.581259748860744,2.8315956120429346 L 6.57598028703109,2.846097716501161 L 6.49417951858393,3.0432869918577468 L 6.489704428300256,3.0542258787619807 L 6.474499808584299,3.0910146789139255 L 6.468034083489797,3.1049038904498922 L 6.459283947809121,3.1200724985972528 L 6.450497663924534,3.132623076809967 L 6.319907696659961,3.3027949643848085 L 6.318622437454896,3.304440788330904 L 6.289172975502071,3.342989900468839 L 6.279283413627646,3.3548125130188153 L 6.266844726987009,3.367270787461789 L 6.255046477257306,3.3771715663624122 L 6.085978291037908,3.5068139768542594 L 6.083787145243181,3.508521503913047 L 6.075757795456884,3.5146438831246902 L 6.044796404906143,3.5384925217920826 L 6.0321494355440075,3.5473731395254964 L 6.016854885486107,3.55620944790976 L 6.00284439145861,3.5627299741375036 L 5.958520642023086,3.5810239744941015 L 5.805140633725386,3.6445571155698397 L 5.79517284884338,3.648636224898373 L 5.789179414216966,3.65120942357997 L 5.757886537372891,3.6641845188567372 L 5.743531266938878,3.669414945225989 L 5.726664224318546,3.6739399418653367 L 5.711618592068342,3.676597026593518 L 5.498793931210921,3.704669612811388 L 5.495792116807224,3.705024944270329 L 5.487520176741517,3.7061002964788705 L 5.448585726393429,3.7112564804439088 L 5.433313702766492,3.7126018044573965 L 5.415789969713588,3.7126063484590697 L 5.400517250449314,3.711268944868474 L 5.189824927502698,3.6834776241750395 L 5.18582709815198,3.68298828272299 L 5.175969370070211,3.681608200791659 L 5.1377872836083025,3.676654849034457 L 5.122614658782276,3.6740032375243183 L 5.105605649832077,3.6694597415400874 L 5.091131824688189,3.6641921070334025 L 4.893828054787585,3.5823856871001722 L 4.882730596346247,3.57784525016484 L 4.846007265404979,3.5626236956007618 L 4.832192513940492,3.5561791069888935 L 4.817102791486713,3.5474670793114083 L 4.8046142142835,3.5387254822226435 L 4.6343435428229585,3.408137392933641 L 4.632698071662364,3.4068527030772837 L 4.625399550684974,3.40128711968379 L 4.593956306756724,3.3771735508604355 L 4.582232429727419,3.3673398070924083 L 4.569864637590616,3.3549724216288004 L 4.560030508321691,3.3432488679610954 L 4.430291603311087,3.174085427474413 L 4.42857869552305,3.1718874067982066 L 4.422327340770676,3.1636889087622797 L 4.398471297481694,3.1325814690550446 L 4.389734593957764,3.1200996421178937 L 4.381026750167688,3.1050185096505443 L 4.374584495675984,3.091211868159604 L 4.292562121914299,2.8933872527738567 L 4.287959383271857,2.8821393234835693 L 4.27300836242512,2.8460686787834275 L 4.267790015494741,2.8317455573492727 L 4.263272269719651,2.814917221822174 L 4.260615604603067,2.7999063896429135 L 4.232440668479873,2.5870741383526035 L 4.232075173624317,2.5839920936308487 L 4.225776677884096,2.5354611237678215 L 4.224328658503604,2.5145368232912384 L 4.22540566309516,2.4933293505086787 L 4.226309080310433,2.485570409923764 L 4.254018194879751,2.274740565234003 L 4.258978197088058,2.237287116732712 L 4.260876288575759,2.223704135465662 L 4.264172356406851,2.2064863115458304 L 4.269168890883302,2.189696263252086 L 4.271049226882915,2.184368644586528 L 4.273935727072945,2.176841200055605 L 4.369921880740873,1.9453274280137036 L 4.374982478476813,1.9332570834902376 L 4.382172705495918,1.918172804798856 L 4.390765875820841,1.9038460587234434 L 4.39401279838885,1.898975674871444 L 4.399822094210538,1.8908602461163653 L 4.529716359458223,1.721594928378862 L 4.552665104907342,1.691569477284652 L 4.561891382540605,1.6797958500150993 L 4.575812215372227,1.6640913810270312 L 4.591561599041928,1.65011499734247 L 4.596633877824305,1.6461471034564177 L 4.7366047880818645,1.5386622806794432 L 4.788571489244623,1.4987808537645315 L 4.795652012743381,1.4934386381226088 L 4.805608271686144,1.485846990678713 L 4.822969456504632,1.4741801055601051 L 4.841827923849887,1.4645490811480537 L 4.848867487529481,1.46151245583909 L 5.080110949911364,1.3656800220106173 L 5.093154049829186,1.3604019837009618 L 5.110502341709371,1.3544249458097477 L 5.128363476496079,1.3502984864819316 L 5.1337145319851185,1.3493541825721036 L 5.1401667829127415,1.3483598072780203 L 5.351194179193256,1.3205242888162547 L 5.388768703075078,1.315548203221078 L 5.403786949629053,1.3137519627199141 L 5.424385023970576,1.312526666444323 L 5.44509539237049,1.3137347687359386 L 5.451737593257088,1.3145364179199512 L 5.662359434765997,1.34221819487975 z M 4.266530066965257,8.129906755952593 L 4.262975679714497,8.125167572952664 L 4.250840697003141,8.10930693765452 L 4.242147396955626,8.096861362673321 L 4.233480692753058,8.081828540033598 L 4.227066321593427,8.068069119853364 L 4.128776100636281,7.830879563011246 L 4.128384520375126,7.829911845022164 L 4.127279808098253,7.827371006786573 L 4.1260722362558315,7.824513121518643 L 4.117958215409017,7.804742338328524 L 4.112840814219604,7.790563881884253 L 4.108407427448343,7.773914670396548 L 4.105796188402999,7.759068867866405 L 4.072456600837829,7.506109768237901 L 4.072230663615734,7.5045282076841735 L 4.07179155725201,7.501186752033556 L 4.071302072791784,7.497107714866761 L 4.06870031621935,7.47785471623122 L 4.067295730103866,7.462175922838928 L 4.06730658231831,7.444182944745528 L 4.06870995203871,7.428727531061114 L 4.102436232926063,7.172903548663483 L 4.104801897375811,7.155393746933022 L 4.105483890965276,7.149710467023978 L 4.107954506440499,7.134682333199724 L 4.112260747679874,7.117815449747044 L 4.117333728981271,7.103336016416465 L 4.119642667866185,7.097601115451539 L 4.21708923775026,6.862447419574945 L 4.224762763071219,6.8438737952165605 L 4.227786646372011,6.836767669459777 L 4.2340652849822815,6.823570840014269 L 4.242474933777441,6.809138035578904 L 4.2509008650366695,6.79711037409222 L 4.4082303131014315,6.591976809725817 L 4.4200449257078755,6.57653490377532 L 4.426256045260122,6.568680568081037 L 4.436705524246619,6.556686760749039 L 4.448102105115653,6.545769512707571 L 4.4526181502781315,6.541817973190386 L 4.46013472113293,6.5356591867899425 L 4.663297160824137,6.3799147397123015 L 4.677755647420206,6.368875254671742 L 4.682903691256746,6.364885520698941 L 4.695321804341351,6.356097773967576 L 4.710334314522674,6.347323530061672 L 4.724085358766661,6.340816394961235 L 4.728256438867381,6.339060150708328 L 4.963833721001474,6.241477773555091 L 4.987873248853658,6.231489047563979 L 5.00166061147211,6.226455234141937 L 5.017727257554196,6.222063987555724 L 5.0321450061825415,6.219387769733209 L 5.037919344907045,6.218573684774247 L 5.290366602393157,6.185301557149945 L 5.308435916583098,6.1829572243712025 L 5.315102030334622,6.182042267581922 L 5.331270862368795,6.180582815845562 L 5.349827435353888,6.180633795056918 L 5.3659880044640715,6.182182063157223 L 5.369309768237966,6.182656600837839 L 5.62029471759086,6.215735998688223 L 5.6378062530670485,6.21810189737582 L 5.643489533014019,6.2187838909707835 L 5.658517666784648,6.2212545064371945 L 5.675384550258878,6.22556074768207 L 5.689861871743152,6.230632989081788 L 5.695575924115538,6.232933237057112 L 5.930824840243371,6.33037776468269 L 5.9483691405826,6.337619888660064 L 5.9564894904256125,6.3410662643860105 L 5.969729159993931,6.347365284986551 L 5.984161964417226,6.355774933774671 L 5.996133681265528,6.364161673236095 L 5.999687957929425,6.36687996461098 L 6.213476374340839,6.530949094658906 L 6.216376213653222,6.533122447003725 L 6.223279192432667,6.538472255557791 L 6.2384000968122955,6.5516436928790664 L 6.251915896695207,6.566457593960996 L 6.255468564520128,6.570830108207049 L 6.258096260441587,6.574159279965028 L 6.41328526028533,6.776597160821228 L 6.424324745328179,6.791055647420102 L 6.428314479291708,6.7962036912443 L 6.4371022260306034,6.808621804339546 L 6.445876469941706,6.823634314529773 L 6.4523836050208185,6.837385358728712 L 6.4541398494107485,6.8415564391547825 L 6.551722226444743,7.077133721001069 L 6.561710952435802,7.101173248852547 L 6.566744765857167,7.1149606114691775 L 6.571136012446498,7.131027257562646 L 6.573812230270041,7.145445006196582 L 6.574626315207269,7.1512193447668615 L 6.607898442867139,7.403666602523731 L 6.61024277562881,7.421735916583185 L 6.611145426647504,7.428312374007579 L 6.612576061589672,7.443848009144081 L 6.612623849180692,7.461680611933382 L 6.611276498595721,7.477223691511583 L 6.577732787377719,7.731731548614589 L 6.577510275262415,7.733321226509015 L 6.576884459780144,7.738447373834108 L 6.574010091593173,7.75971769841773 L 6.57135043123121,7.774553811483632 L 6.56686295859141,7.791187254821038 L 6.561699687525297,7.805347928386743 L 6.463920136329336,8.041405652702519 L 6.4623329834053935,8.045301200560228 L 6.460455264223305,8.049713840640118 L 6.452932268064877,8.06793856372812 L 6.446461598494617,8.081851593627004 L 6.43770139285365,8.097045649318192 L 6.428903074281298,8.109615889107465 L 6.271536679798432,8.314696353144713 L 6.268536027544223,8.318571386295986 L 6.2565079273345825,8.334431447634344 L 6.246527243070228,8.346439449827669 L 6.233941514357189,8.359093728072482 L 6.221987902143391,8.369139489873573 L 6.018408232410955,8.52528116021369 L 6.0154208197446755,8.52755938519087 L 6.012127794846288,8.530029153865286 L 5.9966047699074885,8.54198607848034 L 5.984020130045313,8.550826895504011 L 5.9688042933404,8.559630583659686 L 5.9548676383217884,8.566134648033241 L 5.71755563230721,8.664433746309955 L 5.716608825418908,8.664816792495857 L 5.714071006724958,8.665920191929095 L 5.711213121628655,8.667127763699035 L 5.691442338317859,8.675241784595395 L 5.677263881895083,8.680359185777037 L 5.660614670395122,8.684792572551565 L 5.64576886785882,8.687403811597992 L 5.392809768237992,8.720743399162156 L 5.3912282075553275,8.720969336401932 L 5.387886752072117,8.721408442743648 L 5.383807714866771,8.721897927208216 L 5.36459219504134,8.724494619076623 L 5.349178018304077,8.725887247131427 L 5.331487617615953,8.725916699982436 L 5.316068889149394,8.724575405810306 L 5.061477076277823,8.69103394474947 L 5.059879757323956,8.690810395371702 L 5.054752626193528,8.690184459784014 L 5.03348686805742,8.687310708684544 L 5.018682247924901,8.68465810160856 L 5.002083159277786,8.680184818094846 L 4.987950406592773,8.675039101086448 L 4.845901475275315,8.616291721634061 L 4.7517155616298306,8.577188292628682 L 4.747895550087522,8.575631600703794 L 4.743486159359796,8.57375526422327 L 4.725261436291711,8.566232268073366 L 4.711348406372654,8.55976159849374 L 4.696154350677683,8.551001392850589 L 4.683584110889889,8.54220307427925 L 4.478503161672178,8.384836307498036 L 4.474371580727604,8.381636915287682 L 4.458376357170119,8.369424345950138 L 4.446530333154763,8.359523201769191 L 4.434039904852517,8.347057072452436 L 4.424115711680752,8.335230351413722 L 4.269928926518499,8.134099819767036 L 4.266530066965257,8.129906755952593 z" /></svg>
