<svg xmlns="http://www.w3.org/2000/svg" viewBox="1.9 0.7 12 9.5">
<path fill-rule="evenodd" fill="#66cc99" stroke="#555555" stroke-width="0.020000" opacity="0.6" d="M 222.6182043408725,15.13498362854382 L 222.81542672295757,15.189570236097648 L 222.8154296567423,15.511759599348903 L 222.81382878632257,15.507885589661301 L 222.80901486435525,15.496359297566533 L 222.7682293933309,15.394564154968332 L 222.70663613234433,15.275275940650063 L 222.6182043408725,15.13498362854382 z" /><g /><path fill-rule="evenodd" fill="#66cc99" stroke="#555555" stroke-width="0.020000" opacity="0.6" d="M 222.6182043408725,15.13498362854382 L 222.81542672295757,15.189570236097648 L 222.70663613234433,15.275275940650063 L 222.6182043408725,15.13498362854382 z" /><path fill-rule="evenodd" fill="#66cc99" stroke="#555555" stroke-width="0.020000" opacity="0.6" d="M 222.6182043408725,15.13498362854382 L 222.70663613234433,15.275275940650063 L 222.80901486435525,15.496359297566533 L 222.6182043408725,15.13498362854382 z" /><path fill-rule="evenodd" fill="#66cc99" stroke="#555555" stroke-width="0.020000" opacity="0.6" d="M 222.6182043408725,15.13498362854382 L 222.80901486435525,15.496359297566533 L 222.8154296567423,15.511759599348903 L 222.6182043408725,15.13498362854382 z" /><path fill-rule="evenodd" fill="#66cc99" stroke="#555555" stroke-width="0.020000" opacity="0.6" d="M 222.8154296567423,15.511759599348903 L 222.80901486435525,15.496359297566533 L 222.81382878632257,15.507885589661301 L 222.8154296567423,15.511759599348903 z" /><path fill-rule="evenodd" fill="#66cc99" stroke="#555555" stroke-width="0.020000" opacity="0.6" d="M 222.8154296567423,15.511759599348903 L 222.81382878632257,15.507885589661301 L 222.81542672295757,15.189570236097648 L 222.8154296567423,15.511759599348903 z" /><path fill-rule="evenodd" fill="#66cc99" stroke="#555555" stroke-width="0.020000" opacity="0.6" d="M 222.81542672295757,15.189570236097648 L 222.81382878632257,15.507885589661301 L 222.80901486435525,15.496359297566533 L 222.81542672295757,15.189570236097648 z" /><path fill-rule="evenodd" fill="#66cc99" stroke="#555555" stroke-width="0.020000" opacity="0.6" d="M 222.81542672295757,15.189570236097648 L 222.80901486435525,15.496359297566533 L 222.7682293933309,15.394564154968332 L 222.81542672295757,15.189570236097648 z" /><path fill-rule="evenodd" fill="#66cc99" stroke="#555555" stroke-width="0.020000" opacity="0.6" d="M 222.81542672295757,15.189570236097648 L 222.7682293933309,15.394564154968332 L 222.70663613234433,15.275275940650063 L 222.81542672295757,15.189570236097648 z" /><path fill-rule="evenodd" fill="#66cc99" stroke="#555555" stroke-width="0.020000" opacity="0.6" d="M 222.70663613234433,15.275275940650063 L 222.7682293933309,15.394564154968332 L 222.80901486435525,15.496359297566533 L 222.70663613234433,15.275275940650063 z" /></svg>
